<svg width="100" height="100" viewBox="0 0 100 100" xmlns="http://www.w3.org/2000/svg">
  <defs>
    <radialGradient id="cosmicGlow" cx="50%" cy="50%" r="50%">
      <stop offset="0%" style="stop-color:#00FFE7;stop-opacity:1" />
      <stop offset="50%" style="stop-color:#B84DFF;stop-opacity:0.6" />
      <stop offset="100%" style="stop-color:#00FF88;stop-opacity:0.2" />
    </radialGradient>
    
    <filter id="cosmicFilter" x="-50%" y="-50%" width="200%" height="200%">
      <feGaussianBlur stdDeviation="2" result="coloredBlur"/>
      <feMerge> 
        <feMergeNode in="coloredBlur"/>
        <feMergeNode in="SourceGraphic"/>
      </feMerge>
    </filter>
  </defs>
  
  <!-- Fondo cósmico -->
  <rect width="100" height="100" fill="#0A0C10" opacity="0.9"/>
  
  <g transform="translate(50,50)">
    <!-- Círculo cósmico con grieta -->
    <circle cx="0" cy="0" r="35" stroke="url(#cosmicGlow)" stroke-width="2" fill="none" filter="url(#cosmicFilter)"/>
    
    <!-- Grieta cósmica -->
    <path d="M-25,-25 L-15,-15 M-15,-15 L-5,-5 M-5,-5 L5,5 M5,5 L15,15 M15,15 L25,25" 
          stroke="#B84DFF" stroke-width="2" fill="none" filter="url(#cosmicFilter)"/>
    
    <!-- Triángulo cósmico -->
    <path d="M0,-20 L-17,15 L17,15 Z" stroke="#00FFE7" stroke-width="2" fill="none" filter="url(#cosmicFilter)"/>
    
    <!-- Ojo cósmico -->
    <g transform="translate(0,-2)">
      <ellipse cx="0" cy="0" rx="6" ry="4" fill="#0A0C10" stroke="#00FFE7" stroke-width="1" filter="url(#cosmicFilter)"/>
      <circle cx="0" cy="0" r="2" fill="#00FFE7" filter="url(#cosmicFilter)"/>
      <circle cx="-1" cy="-1" r="0.5" fill="#ffffff" opacity="0.9"/>
    </g>
    
    <!-- Rayos cósmicos -->
    <g stroke="#9AF7EE" stroke-width="1" fill="none" opacity="0.7">
      <line x1="0" y1="0" x2="0" y2="-35" filter="url(#cosmicFilter)"/>
      <line x1="0" y1="0" x2="25" y2="-25" filter="url(#cosmicFilter)"/>
      <line x1="0" y1="0" x2="35" y2="0" filter="url(#cosmicFilter)"/>
      <line x1="0" y1="0" x2="25" y2="25" filter="url(#cosmicFilter)"/>
      <line x1="0" y1="0" x2="0" y2="35" filter="url(#cosmicFilter)"/>
      <line x1="0" y1="0" x2="-25" y2="25" filter="url(#cosmicFilter)"/>
      <line x1="0" y1="0" x2="-35" y2="0" filter="url(#cosmicFilter)"/>
      <line x1="0" y1="0" x2="-25" y2="-25" filter="url(#cosmicFilter)"/>
    </g>
  </g>
</svg>
